<?xml version="1.0" encoding="UTF-8" standalone="no"?>
<!DOCTYPE svg PUBLIC "-//W3C//DTD SVG 1.1//EN" "http://www.w3.org/Graphics/SVG/1.1/DTD/svg11.dtd">
<svg version="1.1" xmlns="http://www.w3.org/2000/svg" xmlns:xlink="http://www.w3.org/1999/xlink" preserveAspectRatio="xMidYMid meet" viewBox="0 0 640 640" width="640" height="640"><defs><path d="M295.48 178.03C295.48 220.13 260.74 254.31 217.97 254.31C175.19 254.31 140.46 220.13 140.46 178.03C140.46 135.94 175.19 101.76 217.97 101.76C260.74 101.76 295.48 135.94 295.48 178.03Z" id="b3jwvv8HW7"></path><path d="M260.24 182.7C260.24 205.66 241.3 224.3 217.97 224.3C194.63 224.3 175.69 205.66 175.69 182.7C175.69 159.74 194.63 141.1 217.97 141.1C241.3 141.1 260.24 159.74 260.24 182.7Z" id="cKg6E8ve"></path><path d="M507.41 178.03C507.41 220.13 472.68 254.31 429.9 254.31C387.12 254.31 352.39 220.13 352.39 178.03C352.39 135.94 387.12 101.76 429.9 101.76C472.68 101.76 507.41 135.94 507.41 178.03Z" id="a4qwH4Mro"></path><path d="M472.18 178.03C472.18 200.99 453.23 219.64 429.9 219.64C406.57 219.64 387.62 200.99 387.62 178.03C387.62 155.07 406.57 136.43 429.9 136.43C453.23 136.43 472.18 155.07 472.18 178.03Z" id="ecgzCeYdv"></path><path d="M471.5 329.78C471.5 417.36 405.95 488.46 325.22 488.46C244.49 488.46 178.94 417.36 178.94 329.78C178.94 242.2 244.49 171.1 325.22 171.1C405.95 171.1 471.5 242.2 471.5 329.78Z" id="e1wOmnmW4L"></path><path d="M394.23 240.3L395.6 240.53L396.96 240.83L398.3 241.19L399.62 241.6L400.92 242.08L402.19 242.62L403.44 243.21L404.67 243.86L405.87 244.56L407.05 245.31L408.09 246.04L407.44 245.7L406.3 245.23L405.11 244.9L403.89 244.69L402.63 244.62L401.38 244.69L400.15 244.9L398.97 245.23L397.83 245.7L396.74 246.28L395.7 246.97L394.73 247.76L393.82 248.66L392.99 249.64L392.23 250.71L391.56 251.86L390.97 253.08L390.48 254.37L390.09 255.71L389.81 257.11L389.63 258.56L389.57 260.04L389.63 261.53L389.81 262.97L390.09 264.37L390.48 265.72L390.97 267L391.56 268.23L392.23 269.37L392.99 270.44L393.82 271.43L394.73 272.32L395.7 273.12L396.74 273.81L397.83 274.39L398.97 274.85L400.15 275.19L401.38 275.4L402.63 275.47L403.89 275.4L405.11 275.19L406.3 274.85L407.44 274.39L408.53 273.81L409.56 273.12L410.53 272.32L411.44 271.43L412.28 270.44L413.03 269.37L413.71 268.23L414.29 267L414.78 265.72L415.17 264.37L415.46 262.97L415.64 261.53L415.7 260.04L415.64 258.56L415.46 257.11L415.17 255.71L414.78 254.37L414.29 253.08L413.71 251.86L413.03 250.71L412.28 249.64L412.2 249.55L412.48 249.83L413.47 250.87L414.43 251.96L415.35 253.09L416.23 254.26L417.08 255.46L417.88 256.71L418.65 258L419.37 259.32L420.06 260.67L420.7 262.06L421.29 263.48L421.84 264.93L422.34 266.41L422.79 267.91L423.2 269.45L423.55 271L423.85 272.58L424.1 274.19L424.3 275.81L424.44 277.46L424.53 279.12L424.55 280.8L424.53 282.48L424.44 284.15L424.3 285.79L424.1 287.42L423.85 289.02L423.55 290.6L423.2 292.16L422.79 293.7L422.34 295.2L421.84 296.68L421.29 298.13L420.7 299.55L420.06 300.94L419.37 302.29L418.65 303.61L417.88 304.9L417.08 306.14L416.23 307.35L415.35 308.52L414.43 309.65L413.47 310.74L412.48 311.78L411.46 312.78L410.4 313.73L409.31 314.64L408.2 315.49L407.05 316.3L405.87 317.05L404.67 317.75L403.44 318.4L402.19 318.99L400.92 319.53L399.62 320L398.3 320.42L396.96 320.78L395.6 321.07L394.23 321.31L392.83 321.47L391.42 321.57L390 321.61L388.58 321.57L387.17 321.47L385.77 321.31L384.4 321.07L383.04 320.78L381.7 320.42L380.38 320L379.08 319.53L377.81 318.99L376.56 318.4L375.33 317.75L374.13 317.05L372.95 316.3L371.8 315.49L370.69 314.64L369.6 313.73L368.54 312.78L367.52 311.78L366.53 310.74L365.57 309.65L364.65 308.52L363.77 307.35L362.92 306.14L362.12 304.9L361.35 303.61L360.63 302.29L359.94 300.94L359.3 299.55L358.71 298.13L358.16 296.68L357.66 295.2L357.21 293.7L356.8 292.16L356.45 290.6L356.15 289.02L355.9 287.42L355.7 285.79L355.56 284.15L355.47 282.48L355.45 280.8L355.47 279.12L355.56 277.46L355.7 275.81L355.9 274.19L356.15 272.58L356.45 271L356.8 269.45L357.21 267.91L357.66 266.41L358.16 264.93L358.71 263.48L359.3 262.06L359.94 260.67L360.63 259.32L361.35 258L362.12 256.71L362.92 255.46L363.77 254.26L364.65 253.09L365.57 251.96L366.53 250.87L367.52 249.83L368.54 248.83L369.6 247.88L370.69 246.97L371.8 246.12L372.95 245.31L374.13 244.56L375.33 243.86L376.56 243.21L377.81 242.62L379.08 242.08L380.38 241.6L381.7 241.19L383.04 240.83L384.4 240.53L385.77 240.3L387.17 240.14L388.58 240.03L390 240L391.42 240.03L392.83 240.14L392.83 240.14L394.23 240.3ZM410.42 247.65L411.19 248.36L411.89 249.13L412.28 249.58L408.15 246.05L408.74 246.41L409.6 247L409.6 247L410.42 247.65Z" id="arxq9KK31"></path><path d="M125.22 469.39C125.25 469.32 125.26 469.28 125.27 469.26C142.37 419.51 187.21 384.54 239.62 380.05C243.16 379.75 252 379 266.15 377.79" id="a3e9bIH9E"></path><path d="M155.85 501.76C155.85 501.76 155.85 501.76 155.85 501.76C159.7 449.36 194.29 404.25 243.9 386.93C247.22 385.77 255.54 382.87 268.85 378.22" id="b1eczuYVD"></path><path d="M525.22 469.39C525.19 469.32 525.18 469.28 525.17 469.26C508.07 419.51 463.23 384.54 410.82 380.05C407.28 379.75 398.44 379 384.29 377.79" id="c15b1R3bGe"></path><path d="M494.59 501.76C494.59 501.76 494.59 501.76 494.59 501.76C490.74 449.36 456.15 404.25 406.54 386.93C403.22 385.77 394.9 382.87 381.59 378.22" id="f50OGXmMrz"></path><path d="M363.16 377.52C363.16 392.97 346.16 405.52 325.22 405.52C304.28 405.52 287.28 392.97 287.28 377.52C287.28 362.06 304.28 349.52 325.22 349.52C346.16 349.52 363.16 362.06 363.16 377.52Z" id="a3RklIocq1"></path><path d="M268.78 238.69L270.16 238.93L271.51 239.22L272.85 239.58L274.17 240L275.47 240.47L276.75 241.01L278 241.6L279.23 242.25L280.43 242.95L281.6 243.7L282.65 244.44L281.99 244.09L280.85 243.63L279.67 243.29L278.44 243.08L277.19 243.01L275.93 243.08L274.71 243.29L273.52 243.63L272.38 244.09L271.29 244.67L270.26 245.36L269.28 246.15L268.38 247.05L267.54 248.03L266.79 249.1L266.11 250.25L265.53 251.47L265.04 252.76L264.65 254.11L264.36 255.5L264.18 256.95L264.12 258.43L264.18 259.92L264.36 261.36L264.65 262.76L265.04 264.11L265.53 265.4L266.11 266.62L266.79 267.77L267.54 268.84L268.38 269.82L269.28 270.72L270.26 271.51L271.29 272.2L272.38 272.78L273.52 273.24L274.71 273.58L275.93 273.79L277.19 273.86L278.44 273.79L279.67 273.58L280.85 273.24L281.99 272.78L283.08 272.2L284.12 271.51L285.09 270.72L286 269.82L286.83 268.84L287.59 267.77L288.26 266.62L288.85 265.4L289.34 264.11L289.73 262.76L290.01 261.36L290.19 259.92L290.25 258.43L290.19 256.95L290.01 255.5L289.73 254.11L289.34 252.76L288.85 251.47L288.26 250.25L287.59 249.1L286.83 248.03L286.76 247.95L287.04 248.22L288.03 249.26L288.98 250.35L289.9 251.48L290.79 252.65L291.63 253.86L292.44 255.1L293.2 256.39L293.93 257.71L294.61 259.06L295.25 260.45L295.84 261.87L296.39 263.32L296.89 264.8L297.35 266.3L297.75 267.84L298.1 269.4L298.41 270.98L298.66 272.58L298.85 274.21L298.99 275.85L299.08 277.52L299.11 279.2L299.08 280.88L298.99 282.54L298.85 284.19L298.66 285.81L298.41 287.42L298.1 289L297.75 290.55L297.35 292.09L296.89 293.59L296.39 295.07L295.84 296.52L295.25 297.94L294.61 299.33L293.93 300.68L293.2 302L292.44 303.29L291.63 304.54L290.79 305.74L289.9 306.91L288.98 308.04L288.03 309.13L287.04 310.17L286.01 311.17L284.96 312.12L283.87 313.03L282.75 313.88L281.6 314.69L280.43 315.44L279.23 316.14L278 316.79L276.75 317.38L275.47 317.92L274.17 318.4L272.85 318.81L271.51 319.17L270.16 319.47L268.78 319.7L267.39 319.86L265.98 319.97L264.55 320L263.13 319.97L261.72 319.86L260.33 319.7L258.95 319.47L257.59 319.17L256.25 318.81L254.94 318.4L253.64 317.92L252.36 317.38L251.11 316.79L249.88 316.14L248.68 315.44L247.51 314.69L246.36 313.88L245.24 313.03L244.15 312.12L243.1 311.17L242.07 310.17L241.08 309.13L240.13 308.04L239.21 306.91L238.32 305.74L237.48 304.54L236.67 303.29L235.9 302L235.18 300.68L234.5 299.33L233.86 297.94L233.27 296.52L232.72 295.07L232.22 293.59L231.76 292.09L231.36 290.55L231 289L230.7 287.42L230.45 285.81L230.26 284.19L230.11 282.54L230.03 280.88L230 279.2L230.03 277.52L230.11 275.85L230.26 274.21L230.45 272.58L230.7 270.98L231 269.4L231.36 267.84L231.76 266.3L232.22 264.8L232.72 263.32L233.27 261.87L233.86 260.45L234.5 259.06L235.18 257.71L235.9 256.39L236.67 255.1L237.48 253.86L238.32 252.65L239.21 251.48L240.13 250.35L241.08 249.26L242.07 248.22L243.1 247.22L244.15 246.27L245.24 245.36L246.36 244.51L247.51 243.7L248.68 242.95L249.88 242.25L251.11 241.6L252.36 241.01L253.64 240.47L254.94 240L256.25 239.58L257.59 239.22L258.95 238.93L260.33 238.69L261.72 238.53L263.13 238.43L264.55 238.39L265.98 238.43L267.39 238.53L267.39 238.53L268.78 238.69ZM284.97 246.04L285.74 246.75L286.45 247.52L286.83 247.97L282.71 244.44L283.29 244.81L284.16 245.39L284.16 245.39L284.97 246.04Z" id="k1WmiHH5f"></path><path d="M289.48 258.54C289.48 266.57 283.92 273.09 277.07 273.09C270.22 273.09 264.66 266.57 264.66 258.54C264.66 250.52 270.22 244 277.07 244C283.92 244 289.48 250.52 289.48 258.54Z" id="a5Uw9AohSD"></path><path d="M414.81 260.21C414.81 268.24 409.25 274.76 402.4 274.76C395.55 274.76 389.99 268.24 389.99 260.21C389.99 252.18 395.55 245.67 402.4 245.67C409.25 245.67 414.81 252.18 414.81 260.21Z" id="anvGSXLd"></path></defs><g><g><g><use xlink:href="#b3jwvv8HW7" opacity="1" fill="#b9b7b8" fill-opacity="1"></use><g><use xlink:href="#b3jwvv8HW7" opacity="1" fill-opacity="0" stroke="#000000" stroke-width="3" stroke-opacity="1"></use></g></g><g><use xlink:href="#cKg6E8ve" opacity="1" fill="#f6a692" fill-opacity="1"></use></g><g><use xlink:href="#a4qwH4Mro" opacity="1" fill="#b9b7b8" fill-opacity="1"></use><g><use xlink:href="#a4qwH4Mro" opacity="1" fill-opacity="0" stroke="#000000" stroke-width="3" stroke-opacity="1"></use></g></g><g><use xlink:href="#ecgzCeYdv" opacity="1" fill="#f6a692" fill-opacity="1"></use></g><g><use xlink:href="#e1wOmnmW4L" opacity="1" fill="#b9b7b8" fill-opacity="1"></use><g><use xlink:href="#e1wOmnmW4L" opacity="1" fill-opacity="0" stroke="#000000" stroke-width="3" stroke-opacity="1"></use></g></g><g><use xlink:href="#arxq9KK31" opacity="1" fill="#000000" fill-opacity="1"></use><g><use xlink:href="#arxq9KK31" opacity="1" fill-opacity="0" stroke="#000000" stroke-width="2" stroke-opacity="1"></use></g></g><g><g><use xlink:href="#a3e9bIH9E" opacity="1" fill-opacity="0" stroke="#000000" stroke-width="3" stroke-opacity="1"></use></g></g><g><g><use xlink:href="#b1eczuYVD" opacity="1" fill-opacity="0" stroke="#000000" stroke-width="3" stroke-opacity="1"></use></g></g><g><g><use xlink:href="#c15b1R3bGe" opacity="1" fill-opacity="0" stroke="#000000" stroke-width="3" stroke-opacity="1"></use></g></g><g><g><use xlink:href="#f50OGXmMrz" opacity="1" fill-opacity="0" stroke="#000000" stroke-width="3" stroke-opacity="1"></use></g></g><g><use xlink:href="#a3RklIocq1" opacity="1" fill="#f6a692" fill-opacity="1"></use><g><use xlink:href="#a3RklIocq1" opacity="1" fill-opacity="0" stroke="#000000" stroke-width="3" stroke-opacity="1"></use></g></g><g><use xlink:href="#k1WmiHH5f" opacity="1" fill="#000000" fill-opacity="1"></use><g><use xlink:href="#k1WmiHH5f" opacity="1" fill-opacity="0" stroke="#000000" stroke-width="2" stroke-opacity="1"></use></g></g><g><use xlink:href="#a5Uw9AohSD" opacity="1" fill="#ffffff" fill-opacity="1"></use></g><g><use xlink:href="#anvGSXLd" opacity="1" fill="#ffffff" fill-opacity="1"></use></g></g></g></svg>